<?xml version="1.0" encoding="utf-8"?><svg viewBox="0 0 30 36" xmlns="http://www.w3.org/2000/svg" xmlns:xlink="http://www.w3.org/1999/xlink"><style>:root>svg{display:none}:root>svg:target{display:block}</style><svg fill="none" viewBox="0 0 24 24" id="arrow" xmlns="http://www.w3.org/2000/svg"><path d="M5 12h14M12 5l7 7-7 7" stroke="currentColor" stroke-width="2" stroke-linecap="round" stroke-linejoin="round"/></svg><svg fill="none" viewBox="0 0 27 8" id="arrow-right" xmlns="http://www.w3.org/2000/svg"><path d="M26.354 4.354a.5.5 0 0 0 0-.708L23.172.464a.5.5 0 1 0-.707.708L25.293 4l-2.828 2.828a.5.5 0 1 0 .707.708l3.182-3.182ZM0 4.5h26v-1H0v1Z" fill="currentColor"/></svg><svg fill="none" viewBox="0 0 30 30" id="close" xmlns="http://www.w3.org/2000/svg"><path d="M22.143 22.143 7.857 7.857m14.286 0L7.857 22.143" stroke="#373740" stroke-width="2" stroke-linecap="round" stroke-linejoin="round" opacity=".7"/></svg><svg fill="none" viewBox="0 0 30 36" id="play" xmlns="http://www.w3.org/2000/svg"><path d="M30 18 0 35.32V.68L30 18Z" fill="currentColor"/></svg><svg fill="none" viewBox="0 0 30 36" id="play-button" xmlns="http://www.w3.org/2000/svg"><path d="M30 18 0 35.32V.68L30 18Z" fill="#4055A5"/></svg></svg>