<svg width="189" height="20" viewBox="0 0 189 20" fill="none" xmlns="http://www.w3.org/2000/svg">
<path d="M9.33337 18.7876H5.55837V4.0876H0.708374V0.937596H14.1834V4.0876H9.33337V18.7876ZM32.6476 9.8376C32.6476 11.2209 32.4726 12.4793 32.1226 13.6126C31.7893 14.7293 31.2726 15.6959 30.5726 16.5126C29.8893 17.3293 29.006 17.9543 27.9226 18.3876C26.856 18.8209 25.5976 19.0376 24.1476 19.0376C22.6976 19.0376 21.431 18.8209 20.3476 18.3876C19.281 17.9376 18.3976 17.3126 17.6976 16.5126C17.0143 15.6959 16.4976 14.7209 16.1476 13.5876C15.8143 12.4543 15.6476 11.1959 15.6476 9.8126C15.6476 7.9626 15.9476 6.35426 16.5476 4.9876C17.1643 3.62093 18.0976 2.5626 19.3476 1.8126C20.6143 1.04593 22.2226 0.662597 24.1726 0.662597C26.106 0.662597 27.6976 1.04593 28.9476 1.8126C30.1976 2.5626 31.1226 3.62926 31.7226 5.0126C32.3393 6.37926 32.6476 7.9876 32.6476 9.8376ZM19.6226 9.8376C19.6226 11.0876 19.781 12.1626 20.0976 13.0626C20.4143 13.9626 20.906 14.6543 21.5726 15.1376C22.2393 15.6209 23.0976 15.8626 24.1476 15.8626C25.231 15.8626 26.0976 15.6209 26.7476 15.1376C27.4143 14.6543 27.8976 13.9626 28.1976 13.0626C28.5143 12.1626 28.6726 11.0876 28.6726 9.8376C28.6726 7.95426 28.3226 6.47926 27.6226 5.4126C26.9226 4.34593 25.7726 3.8126 24.1726 3.8126C23.106 3.8126 22.2393 4.05426 21.5726 4.5376C20.906 5.02093 20.4143 5.7126 20.0976 6.6126C19.781 7.5126 19.6226 8.5876 19.6226 9.8376ZM36.3451 18.7876V0.937596H50.4701V18.7876H46.6951V4.0876H40.1201V18.7876H36.3451ZM61.3207 18.7876V0.937596H75.4457V18.7876H71.6707V4.0876H65.0957V18.7876H61.3207ZM96.1486 9.8376C96.1486 11.2209 95.9736 12.4793 95.6236 13.6126C95.2903 14.7293 94.7736 15.6959 94.0736 16.5126C93.3903 17.3293 92.5069 17.9543 91.4236 18.3876C90.3569 18.8209 89.0986 19.0376 87.6486 19.0376C86.1986 19.0376 84.9319 18.8209 83.8486 18.3876C82.7819 17.9376 81.8986 17.3126 81.1986 16.5126C80.5153 15.6959 79.9986 14.7209 79.6486 13.5876C79.3153 12.4543 79.1486 11.1959 79.1486 9.8126C79.1486 7.9626 79.4486 6.35426 80.0486 4.9876C80.6653 3.62093 81.5986 2.5626 82.8486 1.8126C84.1153 1.04593 85.7236 0.662597 87.6736 0.662597C89.6069 0.662597 91.1986 1.04593 92.4486 1.8126C93.6986 2.5626 94.6236 3.62926 95.2236 5.0126C95.8403 6.37926 96.1486 7.9876 96.1486 9.8376ZM83.1236 9.8376C83.1236 11.0876 83.2819 12.1626 83.5986 13.0626C83.9153 13.9626 84.4069 14.6543 85.0736 15.1376C85.7403 15.6209 86.5986 15.8626 87.6486 15.8626C88.7319 15.8626 89.5986 15.6209 90.2486 15.1376C90.9153 14.6543 91.3986 13.9626 91.6986 13.0626C92.0153 12.1626 92.1736 11.0876 92.1736 9.8376C92.1736 7.95426 91.8236 6.47926 91.1236 5.4126C90.4236 4.34593 89.2736 3.8126 87.6736 3.8126C86.6069 3.8126 85.7403 4.05426 85.0736 4.5376C84.4069 5.02093 83.9153 5.7126 83.5986 6.6126C83.2819 7.5126 83.1236 8.5876 83.1236 9.8376ZM113.483 18.7876H109.708V4.0876H105.333C105.233 4.85426 105.124 5.6876 105.008 6.5876C104.908 7.4876 104.791 8.40426 104.658 9.3376C104.541 10.2543 104.416 11.1293 104.283 11.9626C104.149 12.7793 104.016 13.5043 103.883 14.1376C103.666 15.1709 103.374 16.0543 103.008 16.7876C102.658 17.5209 102.166 18.0793 101.533 18.4626C100.916 18.8459 100.108 19.0376 99.1078 19.0376C98.7745 19.0376 98.4578 19.0126 98.1578 18.9626C97.8578 18.9126 97.5745 18.8459 97.3078 18.7626V15.6626C97.5245 15.7293 97.7328 15.7876 97.9328 15.8376C98.1495 15.8876 98.3828 15.9126 98.6328 15.9126C98.9661 15.9126 99.2411 15.8043 99.4578 15.5876C99.6745 15.3709 99.8661 15.0043 100.033 14.4876C100.199 13.9543 100.366 13.2209 100.533 12.2876C100.616 11.8876 100.716 11.3209 100.833 10.5876C100.949 9.8376 101.083 8.9626 101.233 7.9626C101.399 6.94593 101.566 5.84593 101.733 4.6626C101.899 3.4626 102.058 2.22093 102.208 0.937596H113.483V18.7876ZM117.986 0.937596H121.386V9.5626C121.386 9.97926 121.377 10.4459 121.361 10.9626C121.344 11.4793 121.327 11.9876 121.311 12.4876C121.294 12.9709 121.277 13.3959 121.261 13.7626C121.244 14.1126 121.227 14.3543 121.211 14.4876H121.286L129.536 0.937596H134.061V18.7876H130.686V10.2126C130.686 9.7626 130.694 9.27093 130.711 8.7376C130.727 8.1876 130.744 7.6626 130.761 7.1626C130.794 6.6626 130.819 6.22926 130.836 5.8626C130.869 5.47926 130.894 5.22926 130.911 5.1126H130.811L122.536 18.7876H117.986V0.937596ZM146.117 18.7876L141.817 4.7876H141.717C141.733 5.12093 141.758 5.62093 141.792 6.2876C141.825 6.95426 141.858 7.67093 141.892 8.4376C141.925 9.1876 141.942 9.87093 141.942 10.4876V18.7876H138.567V0.937596H143.717L147.942 14.5876H148.017L152.492 0.937596H157.642V18.7876H154.117V10.3376C154.117 9.77093 154.125 9.12093 154.142 8.3876C154.175 7.65426 154.2 6.9626 154.217 6.3126C154.25 5.64593 154.275 5.14593 154.292 4.8126H154.192L149.592 18.7876H146.117ZM172.426 18.7876H162.151V0.937596H172.426V4.0376H165.926V7.9626H171.976V11.0626H165.926V15.6626H172.426V18.7876ZM181.84 0.937596C184.14 0.937596 185.815 1.4376 186.865 2.4376C187.932 3.42093 188.465 4.77926 188.465 6.5126C188.465 7.29593 188.348 8.04593 188.115 8.7626C187.882 9.4626 187.49 10.0959 186.94 10.6626C186.407 11.2126 185.698 11.6459 184.815 11.9626C183.932 12.2793 182.84 12.4376 181.54 12.4376H179.915V18.7876H176.14V0.937596H181.84ZM181.64 4.0376H179.915V9.3376H181.165C181.882 9.3376 182.498 9.24593 183.015 9.0626C183.532 8.87926 183.932 8.5876 184.215 8.1876C184.498 7.7876 184.64 7.27093 184.64 6.6376C184.64 5.75426 184.398 5.10426 183.915 4.6876C183.432 4.25426 182.673 4.0376 181.64 4.0376Z" fill="white"/>
</svg>
